<svg version="1.1" id="Layer_1" xmlns="http://www.w3.org/2000/svg" xmlns:xlink="http://www.w3.org/1999/xlink" x="0px" y="0px"
	 width="100%" viewBox="300 250 400 400" enable-background="new 0 0 1024 1024" xml:space="preserve">
<path fill="#808080" opacity="1.000000" stroke="none" 
	d="
M534.118652,629.099915 
	C531.066833,633.080078 528.251648,636.796082 525.360596,640.452148 
	C524.045898,642.114685 522.856140,644.321045 520.259460,643.778625 
	C517.772766,643.259155 517.220642,640.978333 516.624939,638.855469 
	C511.636536,621.079407 506.628601,603.308838 501.635376,585.534058 
	C499.521606,578.009583 497.693665,570.391602 495.239502,562.980408 
	C493.411926,557.461487 493.807434,552.401245 495.538055,546.938904 
	C502.636078,524.535278 514.965698,505.076233 528.716797,486.333344 
	C542.019775,468.201202 555.295227,450.005005 563.364929,428.739929 
	C569.016541,413.846924 572.345093,398.471741 571.841309,382.416229 
	C571.758789,379.786224 571.360840,376.780579 574.588867,375.598236 
	C577.443420,374.552673 579.232178,376.673553 581.011108,378.434082 
	C604.099854,401.283569 616.414612,429.047516 619.437744,461.287933 
	C621.923157,487.793091 616.154297,512.543335 604.507019,536.099792 
	C599.165833,546.902466 591.176758,555.995422 583.846252,565.461304 
	C567.435425,586.652649 550.842834,607.703308 534.118652,629.099915 
M589.001465,526.471313 
	C591.477356,528.295959 593.289551,531.057739 596.363770,532.038391 
	C621.060852,497.042419 613.363586,415.711487 583.527954,394.810150 
	C584.958923,408.292358 584.526550,421.725067 582.893433,435.120758 
	C580.115601,457.907104 573.608276,479.679657 564.634216,500.741882 
	C563.509521,503.381714 564.098083,504.949890 566.185303,506.715027 
	C573.685974,513.058411 581.049011,519.564636 589.001465,526.471313 
M542.202332,578.512024 
	C538.548523,591.707886 534.894775,604.903748 531.241028,618.099609 
	C551.444153,593.649841 570.593140,568.695435 589.857605,543.830444 
	C591.925110,541.161926 591.325745,539.499084 589.081787,537.567444 
	C580.875183,530.503113 572.743530,523.351746 564.540222,516.283569 
	C563.467773,515.359558 562.634705,513.885437 560.426758,514.093140 
	C553.553040,534.974915 548.468872,556.494263 542.202332,578.512024 
M508.882690,580.780457 
	C512.665222,594.475769 516.447754,608.171143 520.230286,621.866455 
	C520.709473,621.863708 521.188599,621.860962 521.667786,621.858215 
	C531.175537,587.319031 540.683350,552.779846 550.191101,518.240662 
	C534.137573,530.236572 519.112488,542.806091 504.035553,555.313171 
	C502.161865,556.867493 502.828033,558.551270 503.291962,560.289673 
	C505.047913,566.869202 506.840210,573.439087 508.882690,580.780457 
M512.707581,527.166870 
	C510.518860,531.601868 508.449341,536.083374 506.578125,542.304626 
	C523.142212,528.523865 538.606750,515.688293 554.005127,502.773926 
	C554.961914,501.971497 555.526917,500.606293 556.058044,499.407166 
	C560.376831,489.657043 564.078430,479.685120 567.189819,469.473358 
	C572.093079,453.380676 574.715637,436.939850 575.414795,420.130096 
	C568.580811,442.793518 556.070129,462.367188 542.582458,481.425385 
	C532.198547,496.097900 521.144714,510.335144 512.707581,527.166870 
z"/>
<path fill="#6495ED" opacity="1.000000" stroke="none" 
	d="
M506.757172,268.115173 
	C530.446655,288.377625 542.165710,314.110596 542.938904,344.598419 
	C543.620728,371.484741 534.543579,395.598053 519.432129,417.548309 
	C507.894684,434.307098 494.308044,449.491058 482.070221,465.709900 
	C469.672821,482.140198 458.530945,499.324036 454.047394,519.847412 
	C449.744171,539.545471 452.008026,558.561768 460.653687,576.800232 
	C461.293976,578.151062 461.988770,579.498413 462.421631,580.919434 
	C462.962952,582.696777 462.333313,584.184509 460.770203,585.244995 
	C459.351410,586.207581 457.953339,586.118591 456.591095,585.155457 
	C455.912323,584.675598 455.245148,584.170044 454.625793,583.616699 
	C429.726166,561.371216 415.377991,534.173523 414.535370,500.233582 
	C413.818024,471.338806 424.771637,446.694916 440.888519,423.720428 
	C453.623566,405.566772 468.668640,389.190735 481.398438,371.028015 
	C497.106079,348.616547 507.331787,324.521851 504.716095,296.409912 
	C503.986786,288.571838 502.123871,281.014099 498.955933,273.776245 
	C497.826080,271.194824 495.196838,268.405426 498.653656,265.761322 
	C501.983246,263.214508 504.116791,266.225311 506.757172,268.115173 
M443.678864,540.464844 
	C443.256165,532.409058 444.534058,524.539124 446.376709,516.748169 
	C451.110504,496.732788 461.414093,479.517395 473.432251,463.173096 
	C486.161621,445.861572 500.779510,430.007507 512.797058,412.146332 
	C530.281311,386.160278 539.276550,358.158508 532.643738,326.630035 
	C529.449768,311.448090 523.247559,297.639984 511.955139,285.262939 
	C512.260620,288.141266 512.422180,290.051056 512.671875,291.949219 
	C513.785095,300.412781 513.881958,308.927094 512.730408,317.342377 
	C509.215240,343.030365 497.042877,364.832001 481.605896,385.081055 
	C468.384766,402.423462 453.662781,418.634460 442.042450,437.181824 
	C421.937347,469.271820 415.377869,502.858185 431.246765,538.784363 
	C435.038239,547.368103 439.853699,555.311340 446.798798,563.337830 
	C444.898132,555.296814 443.623688,548.456970 443.678864,540.464844 
z"/>
</svg> 